<?xml version="1.0" encoding="UTF-8"?>
<!DOCTYPE svg PUBLIC "-//W3C//DTD SVG 1.1//EN" "http://www.w3.org/Graphics/SVG/1.1/DTD/svg11.dtd">
<svg version="1.2" width="190mm" height="90.9mm" viewBox="0 0 19000 9090" preserveAspectRatio="xMidYMid" fill-rule="evenodd" stroke-width="28.222" stroke-linejoin="round" xmlns="http://www.w3.org/2000/svg" xmlns:ooo="http://xml.openoffice.org/svg/export" xmlns:xlink="http://www.w3.org/1999/xlink" xmlns:presentation="http://sun.com/xmlns/staroffice/presentation" xmlns:smil="http://www.w3.org/2001/SMIL20/" xmlns:anim="urn:oasis:names:tc:opendocument:xmlns:animation:1.0" xml:space="preserve">
 <defs class="ClipPathGroup">
  <clipPath id="presentation_clip_path" clipPathUnits="userSpaceOnUse">
   <rect x="0" y="0" width="19000" height="9090"/>
  </clipPath>
  <clipPath id="presentation_clip_path_shrink" clipPathUnits="userSpaceOnUse">
   <rect x="19" y="9" width="18962" height="9072"/>
  </clipPath>
 </defs>
 <defs class="TextShapeIndex">
  <g ooo:slide="id1" ooo:id-list="id3 id4 id5 id6 id7 id8 id9 id10 id11 id12 id13 id14 id15 id16 id17 id18 id19 id20"/>
 </defs>
 <defs class="EmbeddedBulletChars">
  <g id="bullet-char-template(57356)" transform="scale(0.00048828125,-0.00048828125)">
   <path d="M 580,1141 L 1163,571 580,0 -4,571 580,1141 Z"/>
  </g>
  <g id="bullet-char-template(57354)" transform="scale(0.00048828125,-0.00048828125)">
   <path d="M 8,1128 L 1137,1128 1137,0 8,0 8,1128 Z"/>
  </g>
  <g id="bullet-char-template(10146)" transform="scale(0.00048828125,-0.00048828125)">
   <path d="M 174,0 L 602,739 174,1481 1456,739 174,0 Z M 1358,739 L 309,1346 659,739 1358,739 Z"/>
  </g>
  <g id="bullet-char-template(10132)" transform="scale(0.00048828125,-0.00048828125)">
   <path d="M 2015,739 L 1276,0 717,0 1260,543 174,543 174,936 1260,936 717,1481 1274,1481 2015,739 Z"/>
  </g>
  <g id="bullet-char-template(10007)" transform="scale(0.00048828125,-0.00048828125)">
   <path d="M 0,-2 C -7,14 -16,27 -25,37 L 356,567 C 262,823 215,952 215,954 215,979 228,992 255,992 264,992 276,990 289,987 310,991 331,999 354,1012 L 381,999 492,748 772,1049 836,1024 860,1049 C 881,1039 901,1025 922,1006 886,937 835,863 770,784 769,783 710,716 594,584 L 774,223 C 774,196 753,168 711,139 L 727,119 C 717,90 699,76 672,76 641,76 570,178 457,381 L 164,-76 C 142,-110 111,-127 72,-127 30,-127 9,-110 8,-76 1,-67 -2,-52 -2,-32 -2,-23 -1,-13 0,-2 Z"/>
  </g>
  <g id="bullet-char-template(10004)" transform="scale(0.00048828125,-0.00048828125)">
   <path d="M 285,-33 C 182,-33 111,30 74,156 52,228 41,333 41,471 41,549 55,616 82,672 116,743 169,778 240,778 293,778 328,747 346,684 L 369,508 C 377,444 397,411 428,410 L 1163,1116 C 1174,1127 1196,1133 1229,1133 1271,1133 1292,1118 1292,1087 L 1292,965 C 1292,929 1282,901 1262,881 L 442,47 C 390,-6 338,-33 285,-33 Z"/>
  </g>
  <g id="bullet-char-template(9679)" transform="scale(0.00048828125,-0.00048828125)">
   <path d="M 813,0 C 632,0 489,54 383,161 276,268 223,411 223,592 223,773 276,916 383,1023 489,1130 632,1184 813,1184 992,1184 1136,1130 1245,1023 1353,916 1407,772 1407,592 1407,412 1353,268 1245,161 1136,54 992,0 813,0 Z"/>
  </g>
  <g id="bullet-char-template(8226)" transform="scale(0.00048828125,-0.00048828125)">
   <path d="M 346,457 C 273,457 209,483 155,535 101,586 74,649 74,723 74,796 101,859 155,911 209,963 273,989 346,989 419,989 480,963 531,910 582,859 608,796 608,723 608,648 583,586 532,535 482,483 420,457 346,457 Z"/>
  </g>
  <g id="bullet-char-template(8211)" transform="scale(0.00048828125,-0.00048828125)">
   <path d="M -4,459 L 1135,459 1135,606 -4,606 -4,459 Z"/>
  </g>
  <g id="bullet-char-template(61548)" transform="scale(0.00048828125,-0.00048828125)">
   <path d="M 173,740 C 173,903 231,1043 346,1159 462,1274 601,1332 765,1332 928,1332 1067,1274 1183,1159 1299,1043 1357,903 1357,740 1357,577 1299,437 1183,322 1067,206 928,148 765,148 601,148 462,206 346,322 231,437 173,577 173,740 Z"/>
  </g>
 </defs>
 <defs class="TextEmbeddedBitmaps"/>
 <g>
  <g id="id2" class="Master_Slide">
   <g id="bg-id2" class="Background"/>
   <g id="bo-id2" class="BackgroundObjects"/>
  </g>
 </g>
 <g class="SlideGroup">
  <g>
   <g id="container-id1">
    <g id="id1" class="Slide" clip-path="url(#presentation_clip_path)">
     <g class="Page">
      <g class="Group">
       <g class="com.sun.star.drawing.ClosedBezierShape">
        <g id="id3">
         <rect class="BoundingBox" stroke="none" fill="none" x="-1" y="-1" width="19004" height="9104"/>
         <path fill="rgb(0,0,0)" stroke="none" d="M 1516,0 C 758,0 0,758 0,1516 0,3539 0,5561 0,7584 0,8342 758,9101 1516,9101 6839,9101 12161,9101 17484,9101 18242,9101 19001,8342 19001,7584 19001,5561 19001,3539 19001,1516 19001,758 18242,0 17484,0 12161,0 6839,0 1516,0 Z M 0,0 L 0,0 Z M 19001,9101 L 19001,9101 Z"/>
         <path fill="none" stroke="rgb(0,0,0)" d="M 1516,0 C 758,0 0,758 0,1516 L 0,7584 C 0,8342 758,9101 1516,9101 L 17484,9101 C 18242,9101 19001,8342 19001,7584 L 19001,1516 C 19001,758 18242,0 17484,0 L 1516,0 Z"/>
         <path fill="none" stroke="rgb(0,0,0)" d="M 0,0 L 0,0 Z"/>
         <path fill="none" stroke="rgb(0,0,0)" d="M 19001,9101 L 19001,9101 Z"/>
        </g>
       </g>
       <g class="Group">
        <g class="Group">
         <g class="com.sun.star.drawing.ClosedBezierShape">
          <g id="id4">
           <rect class="BoundingBox" stroke="none" fill="none" x="5906" y="1938" width="1785" height="1758"/>
           <path fill="rgb(255,255,255)" stroke="none" d="M 7627,1938 L 7269,1944 7266,1989 C 7265,2007 7264,2025 7264,2042 7263,2059 7263,2076 7263,2093 7205,2044 7140,2007 7067,1981 6995,1956 6918,1944 6838,1944 6535,1945 6304,2019 6146,2167 5987,2316 5908,2533 5907,2819 5908,3105 5990,3323 6153,3471 6315,3619 6553,3694 6866,3695 6992,3694 7106,3675 7210,3637 7313,3600 7404,3549 7485,3485 7565,3420 7633,3347 7689,3266 L 7396,3093 C 7365,3138 7327,3179 7282,3219 7238,3259 7185,3292 7126,3317 7066,3342 6998,3355 6922,3356 6775,3356 6663,3310 6587,3219 6510,3128 6472,2995 6471,2819 6472,2644 6503,2510 6566,2419 6628,2329 6719,2283 6838,2282 6966,2283 7060,2311 7122,2368 7183,2425 7221,2510 7235,2621 L 7627,2621 7627,1938 Z"/>
          </g>
         </g>
         <g class="com.sun.star.drawing.ClosedBezierShape">
          <g id="id5">
           <rect class="BoundingBox" stroke="none" fill="none" x="7829" y="1964" width="1983" height="1717"/>
           <path fill="rgb(255,255,255)" stroke="none" d="M 9579,1964 L 9128,1973 9015,2086 8447,1967 C 8246,1967 8093,2039 7988,2183 7883,2326 7830,2538 7830,2819 7830,3100 7883,3313 7988,3459 8093,3605 8246,3679 8447,3680 L 9128,3468 9241,3663 9805,3671 9811,3290 9737,3307 C 9702,3314 9673,3319 9650,3323 9627,3326 9603,3327 9579,3327 L 9579,1964 Z M 9015,2399 L 9015,3276 8676,3333 C 8579,3334 8506,3293 8455,3210 8405,3128 8380,2997 8379,2819 8379,2701 8391,2606 8413,2536 8436,2466 8469,2416 8514,2386 8558,2356 8612,2342 8676,2342 L 9015,2399 Z"/>
          </g>
         </g>
         <g class="com.sun.star.drawing.ClosedBezierShape">
          <g id="id6">
           <rect class="BoundingBox" stroke="none" fill="none" x="9975" y="1913" width="1838" height="1754"/>
           <path fill="rgb(255,255,255)" stroke="none" d="M 11812,1947 C 11755,1936 11698,1928 11638,1922 11579,1916 11509,1913 11429,1913 11376,1913 11323,1929 11269,1962 11215,1994 11161,2045 11107,2114 L 10828,2483 10828,2311 C 10827,2202 10798,2119 10741,2061 10683,2002 10599,1973 10489,1973 L 9981,1970 9975,2339 10043,2328 C 10081,2321 10121,2317 10162,2314 10203,2312 10236,2311 10263,2311 L 10263,3324 C 10236,3325 10203,3324 10162,3321 10121,3319 10081,3314 10043,3308 L 9975,3296 9981,3666 10545,3657 11053,3666 11059,3302 10991,3310 C 10956,3315 10926,3318 10901,3321 10877,3323 10852,3324 10828,3324 L 10828,2821 11161,2497 C 11172,2485 11189,2474 11211,2465 11233,2455 11258,2450 11285,2449 11326,2447 11366,2466 11405,2505 11444,2544 11472,2616 11491,2719 L 11812,2719 11812,1947 Z"/>
          </g>
         </g>
         <g class="com.sun.star.drawing.ClosedBezierShape">
          <g id="id7">
           <rect class="BoundingBox" stroke="none" fill="none" x="11906" y="1517" width="1142" height="2153"/>
           <path fill="rgb(255,255,255)" stroke="none" d="M 12787,1518 L 12420,1526 11912,1518 11906,1888 11974,1876 C 12012,1869 12052,1865 12093,1862 12134,1860 12167,1859 12194,1859 L 12194,3327 C 12167,3327 12134,3326 12093,3324 12052,3322 12012,3317 11974,3310 L 11906,3299 11912,3669 12476,3660 13041,3669 13047,3299 12979,3310 C 12941,3317 12901,3322 12860,3324 12819,3326 12786,3327 12759,3327 L 12759,1859 C 12759,1821 12761,1780 12766,1738 12771,1695 12775,1654 12780,1615 12784,1576 12787,1544 12787,1518 Z"/>
          </g>
         </g>
         <g class="com.sun.star.drawing.ClosedBezierShape">
          <g id="id8">
           <rect class="BoundingBox" stroke="none" fill="none" x="13148" y="1943" width="1785" height="1753"/>
           <path fill="rgb(255,255,255)" stroke="none" d="M 14080,1944 C 13777,1944 13546,2019 13388,2167 13230,2316 13150,2533 13149,2820 13150,3106 13232,3323 13395,3471 13558,3619 13795,3694 14108,3695 14234,3694 14349,3675 14452,3637 14555,3600 14647,3549 14727,3485 14807,3421 14875,3348 14932,3266 L 14639,3094 C 14608,3138 14570,3180 14525,3219 14480,3259 14428,3292 14368,3317 14309,3342 14241,3355 14165,3356 14026,3356 13919,3314 13843,3233 13767,3151 13725,3032 13716,2876 L 14895,2904 C 14902,2868 14908,2831 14912,2793 14916,2755 14918,2719 14918,2684 14916,2524 14880,2390 14809,2280 14738,2170 14639,2086 14514,2029 14389,1972 14244,1944 14080,1944 Z M 14080,2254 C 14133,2252 14181,2259 14226,2272 14270,2285 14307,2312 14334,2352 14361,2392 14376,2452 14376,2532 14376,2542 14376,2552 14376,2562 14376,2572 14375,2583 14373,2594 L 13736,2594 C 13759,2486 13799,2402 13857,2343 13915,2284 13989,2254 14080,2254 Z"/>
          </g>
         </g>
         <g class="com.sun.star.drawing.ClosedBezierShape">
          <g id="id9">
           <rect class="BoundingBox" stroke="none" fill="none" x="15025" y="1633" width="1226" height="2063"/>
           <path fill="rgb(255,255,255)" stroke="none" d="M 15897,1634 L 15454,1634 15372,1978 15031,1973 15025,2331 15093,2325 C 15118,2323 15147,2321 15179,2320 15210,2318 15241,2317 15271,2315 15300,2314 15323,2314 15341,2314 L 15341,3227 C 15343,3348 15372,3443 15428,3511 15483,3579 15554,3627 15639,3655 15723,3683 15811,3696 15900,3695 15964,3694 16024,3689 16079,3680 16133,3670 16180,3658 16219,3644 L 16210,3305 C 16169,3306 16126,3301 16079,3291 16032,3281 15992,3262 15958,3233 15925,3203 15907,3160 15906,3102 L 15906,2314 C 15924,2314 15950,2314 15984,2315 16018,2317 16053,2318 16089,2320 16126,2321 16157,2323 16182,2325 L 16250,2331 16244,1973 15903,1978 15897,1634 Z"/>
          </g>
         </g>
         <g class="com.sun.star.drawing.ClosedBezierShape">
          <g id="id10">
           <rect class="BoundingBox" stroke="none" fill="none" x="16385" y="1633" width="1226" height="2063"/>
           <path fill="rgb(255,255,255)" stroke="none" d="M 17257,1634 L 16814,1634 16732,1978 16391,1973 16385,2331 16453,2325 C 16478,2323 16507,2321 16539,2320 16570,2318 16601,2317 16631,2315 16660,2314 16683,2314 16701,2314 L 16701,3227 C 16703,3348 16732,3443 16788,3511 16843,3579 16914,3627 16999,3655 17083,3683 17171,3696 17260,3695 17324,3694 17384,3689 17439,3680 17493,3670 17540,3658 17579,3644 L 17570,3305 C 17529,3306 17486,3301 17439,3291 17392,3281 17352,3262 17318,3233 17285,3203 17267,3160 17266,3102 L 17266,2314 C 17284,2314 17310,2314 17344,2315 17378,2317 17413,2318 17449,2320 17486,2321 17517,2323 17542,2325 L 17610,2331 17604,1973 17263,1978 17257,1634 Z"/>
          </g>
         </g>
        </g>
        <g class="com.sun.star.drawing.ClosedBezierShape">
         <g id="id11">
          <rect class="BoundingBox" stroke="none" fill="none" x="1391" y="1849" width="4539" height="5334"/>
          <path fill="rgb(255,255,255)" stroke="none" d="M 5553,1864 C 5275,1859 4998,1854 4720,1850 4718,1979 4715,2108 4713,2238 4562,2132 4392,2053 4205,2000 4017,1947 3832,1920 3649,1920 2959,1922 2435,2044 2075,2288 1716,2532 1535,2889 1533,3360 1537,3677 1610,3937 1750,4141 1890,4346 2071,4512 2292,4640 2513,4768 2748,4875 2997,4961 3245,5048 3481,5131 3702,5210 3923,5290 4104,5384 4244,5492 4384,5600 4457,5739 4461,5911 4462,6038 4395,6135 4262,6200 4128,6266 3924,6299 3649,6299 3450,6298 3257,6261 3070,6187 2883,6113 2726,6007 2598,5870 2469,5733 2394,5570 2371,5381 2045,5381 1718,5381 1391,5381 1391,5976 1391,6572 1391,7167 1692,7172 1993,7177 2294,7181 2296,7017 2298,6852 2301,6687 2419,6784 2556,6867 2712,6935 2868,7003 3028,7055 3191,7091 3355,7127 3508,7146 3649,7146 4387,7145 4950,7027 5339,6794 5729,6561 5925,6219 5929,5769 5923,5426 5846,5143 5696,4921 5547,4698 5354,4518 5118,4380 4881,4243 4631,4129 4365,4040 4100,3951 3849,3869 3613,3793 3377,3718 3184,3630 3035,3532 2885,3433 2808,3306 2803,3148 2807,3034 2884,2942 3036,2873 3188,2804 3392,2769 3649,2767 3806,2768 3961,2796 4113,2852 4265,2907 4392,2986 4493,3087 4594,3188 4647,3308 4651,3445 4650,3476 4649,3506 4647,3533 4645,3559 4644,3587 4644,3615 4947,3615 5250,3615 5553,3615 5553,3031 5553,2447 5553,1864 Z"/>
         </g>
        </g>
        <g class="Group">
         <g class="com.sun.star.drawing.ClosedBezierShape">
          <g id="id12">
           <rect class="BoundingBox" stroke="none" fill="none" x="8675" y="4613" width="920" height="878"/>
           <path fill="rgb(255,255,255)" stroke="none" d="M 9594,4630 C 9566,4625 9537,4620 9507,4618 9477,4615 9442,4613 9402,4613 9376,4613 9349,4621 9322,4638 9295,4654 9268,4679 9241,4713 L 9101,4898 9101,4812 C 9101,4757 9086,4716 9058,4687 9029,4658 8987,4643 8932,4643 L 8678,4642 8675,4826 8709,4820 C 8728,4817 8748,4815 8768,4814 8789,4812 8806,4812 8819,4812 L 8819,5319 C 8806,5319 8789,5319 8768,5318 8748,5316 8728,5314 8709,5311 L 8675,5305 8678,5490 8960,5486 9214,5490 9217,5308 9183,5312 C 9165,5314 9150,5316 9138,5317 9125,5318 9113,5319 9101,5319 L 9101,5067 9268,4905 C 9274,4899 9282,4894 9293,4889 9304,4884 9316,4881 9330,4881 9350,4880 9370,4889 9390,4909 9409,4929 9424,4964 9433,5016 L 9594,5016 9594,4630 Z"/>
          </g>
         </g>
         <g class="com.sun.star.drawing.ClosedBezierShape">
          <g id="id13">
           <rect class="BoundingBox" stroke="none" fill="none" x="9652" y="4638" width="992" height="861"/>
           <path fill="rgb(255,255,255)" stroke="none" d="M 10527,4639 L 10301,4643 10245,4699 9961,4640 C 9860,4640 9784,4676 9731,4748 9679,4820 9652,4926 9652,5067 9652,5207 9679,5314 9731,5387 9784,5460 9860,5497 9961,5497 L 10301,5392 10358,5489 10640,5493 10643,5303 10606,5311 C 10588,5315 10574,5317 10562,5319 10551,5320 10539,5321 10527,5321 L 10527,4639 Z M 10245,4856 L 10245,5296 10075,5324 C 10027,5324 9990,5304 9965,5263 9940,5221 9927,5156 9927,5067 9927,4978 9940,4916 9965,4880 9990,4844 10027,4827 10075,4828 L 10245,4856 Z"/>
          </g>
         </g>
         <g class="com.sun.star.drawing.ClosedBezierShape">
          <g id="id14">
           <rect class="BoundingBox" stroke="none" fill="none" x="10690" y="4629" width="1643" height="862"/>
           <path fill="rgb(255,255,255)" stroke="none" d="M 11003,4629 L 10693,4643 10690,4826 10724,4820 C 10743,4817 10763,4815 10783,4814 10804,4812 10821,4812 10834,4812 L 10834,5319 C 10821,5319 10804,5319 10783,5318 10763,5316 10743,5314 10724,5311 L 10690,5305 10693,5490 10975,5486 11229,5490 11232,5308 11198,5312 C 11180,5314 11165,5316 11153,5317 11140,5318 11128,5319 11116,5319 L 11116,4849 11257,4801 C 11294,4801 11322,4810 11340,4827 11358,4845 11370,4873 11376,4912 11382,4951 11385,5003 11384,5068 L 11384,5319 C 11376,5319 11372,5319 11371,5319 11370,5318 11368,5318 11366,5318 11364,5317 11357,5317 11345,5316 L 11311,5315 11314,5490 11525,5486 11737,5490 11739,5312 11705,5315 C 11693,5316 11686,5317 11684,5317 11682,5318 11680,5318 11679,5319 11678,5319 11674,5319 11666,5319 L 11666,4973 C 11666,4950 11666,4928 11665,4908 11664,4887 11662,4868 11660,4851 L 11807,4801 C 11844,4801 11872,4810 11890,4827 11908,4845 11920,4873 11926,4912 11932,4951 11935,5003 11934,5068 L 11934,5319 C 11926,5319 11921,5319 11917,5319 11914,5318 11910,5318 11906,5317 11901,5317 11893,5316 11880,5315 L 11847,5312 11849,5490 12075,5486 12329,5490 12332,5305 12298,5311 C 12280,5314 12265,5316 12253,5318 12240,5319 12228,5319 12216,5319 L 12216,4974 C 12217,4890 12209,4823 12193,4773 12177,4722 12149,4685 12108,4662 12067,4640 12009,4629 11934,4629 L 11631,4740 C 11612,4701 11583,4673 11543,4655 11504,4637 11451,4629 11384,4629 L 11074,4743 11003,4629 Z"/>
          </g>
         </g>
         <g class="com.sun.star.drawing.ClosedBezierShape">
          <g id="id15">
           <rect class="BoundingBox" stroke="none" fill="none" x="12365" y="4629" width="893" height="876"/>
           <path fill="rgb(255,255,255)" stroke="none" d="M 12831,4629 C 12679,4629 12564,4667 12485,4741 12406,4815 12366,4924 12365,5067 12366,5210 12407,5318 12488,5392 12570,5466 12689,5504 12845,5504 12940,5503 13021,5482 13090,5442 13159,5403 13215,5352 13257,5290 L 13110,5204 C 13087,5238 13056,5268 13017,5294 12978,5320 12930,5334 12873,5335 12804,5335 12750,5314 12712,5273 12674,5232 12653,5173 12649,5095 L 13239,5109 C 13242,5091 13245,5073 13247,5053 13249,5034 13250,5016 13250,4999 13249,4919 13231,4852 13196,4797 13160,4742 13111,4700 13048,4672 12985,4643 12913,4629 12831,4629 Z M 12831,4784 C 12857,4783 12881,4786 12904,4793 12926,4800 12944,4813 12958,4833 12972,4853 12979,4883 12979,4923 12979,4928 12979,4933 12979,4938 12979,4943 12978,4948 12978,4954 L 12659,4954 C 12670,4900 12690,4858 12719,4829 12748,4799 12786,4784 12831,4784 Z"/>
          </g>
         </g>
         <g class="com.sun.star.drawing.ClosedBezierShape">
          <g id="id16">
           <rect class="BoundingBox" stroke="none" fill="none" x="13268" y="4643" width="1425" height="859"/>
           <path fill="rgb(255,255,255)" stroke="none" d="M 14688,4643 L 14519,4646 14343,4643 14340,4818 C 14352,4817 14366,4816 14381,4815 14396,4814 14407,4814 14412,4814 L 14296,5100 14182,4818 14224,4819 14221,4643 14014,4646 13788,4643 13785,4819 13815,4816 C 13825,4816 13835,4815 13846,4815 13858,4814 13866,4814 13871,4814 L 13881,4836 13767,5114 13569,4643 13483,4646 13272,4643 13269,4825 C 13277,4824 13285,4823 13294,4821 13302,4820 13310,4819 13318,4819 13328,4819 13335,4822 13341,4829 13347,4836 13354,4849 13362,4868 L 13637,5490 C 13638,5490 13648,5490 13666,5490 13683,5490 13702,5491 13723,5493 13743,5495 13758,5497 13767,5501 L 13973,5044 14172,5490 C 14173,5490 14181,5490 14197,5490 14213,5490 14231,5491 14249,5493 14268,5495 14281,5497 14290,5501 L 14573,4870 C 14581,4850 14589,4836 14597,4828 14605,4820 14616,4816 14629,4816 14638,4816 14648,4817 14660,4819 14671,4820 14682,4822 14691,4823 L 14688,4643 Z"/>
          </g>
         </g>
         <g class="com.sun.star.drawing.ClosedBezierShape">
          <g id="id17">
           <rect class="BoundingBox" stroke="none" fill="none" x="14706" y="4629" width="904" height="876"/>
           <path fill="rgb(255,255,255)" stroke="none" d="M 15609,5066 C 15608,4923 15570,4815 15493,4741 15417,4667 15305,4629 15158,4629 15010,4629 14898,4667 14822,4741 14745,4815 14707,4923 14706,5066 14707,5210 14745,5318 14822,5392 14898,5466 15010,5504 15158,5504 15305,5504 15417,5466 15493,5392 15570,5318 15608,5210 15609,5066 Z M 15327,5066 C 15327,5154 15315,5221 15291,5267 15267,5312 15232,5335 15186,5335 15121,5335 15072,5312 15039,5267 15005,5221 14988,5154 14988,5066 14988,4979 15000,4912 15024,4866 15048,4821 15083,4798 15129,4798 15194,4798 15243,4821 15276,4866 15310,4912 15327,4979 15327,5066 Z"/>
          </g>
         </g>
         <g class="com.sun.star.drawing.ClosedBezierShape">
          <g id="id18">
           <rect class="BoundingBox" stroke="none" fill="none" x="15660" y="4613" width="920" height="878"/>
           <path fill="rgb(255,255,255)" stroke="none" d="M 16579,4630 C 16551,4625 16522,4620 16492,4618 16462,4615 16427,4613 16387,4613 16361,4613 16334,4621 16307,4638 16280,4654 16253,4679 16226,4713 L 16086,4898 16086,4812 C 16086,4757 16071,4716 16043,4687 16014,4658 15972,4643 15917,4643 L 15663,4642 15660,4826 15694,4820 C 15713,4817 15733,4815 15753,4814 15774,4812 15791,4812 15804,4812 L 15804,5319 C 15791,5319 15774,5319 15753,5318 15733,5316 15713,5314 15694,5311 L 15660,5305 15663,5490 15945,5486 16199,5490 16202,5308 16168,5312 C 16150,5314 16135,5316 16123,5317 16110,5318 16098,5319 16086,5319 L 16086,5067 16253,4905 C 16259,4899 16267,4894 16278,4889 16289,4884 16301,4881 16315,4881 16335,4880 16355,4889 16375,4909 16394,4929 16409,4964 16418,5016 L 16579,5016 16579,4630 Z"/>
          </g>
         </g>
         <g class="com.sun.star.drawing.ClosedBezierShape">
          <g id="id19">
           <rect class="BoundingBox" stroke="none" fill="none" x="16591" y="4416" width="1062" height="1103"/>
           <path fill="rgb(255,255,255)" stroke="none" d="M 17031,4417 L 16876,4421 16594,4417 16591,4601 16625,4595 C 16644,4592 16664,4590 16684,4589 16705,4587 16722,4587 16735,4587 L 16735,5319 C 16722,5319 16705,5319 16684,5318 16664,5316 16644,5314 16625,5311 L 16591,5305 16594,5490 16876,5486 17134,5490 17126,5312 17092,5315 C 17074,5316 17059,5317 17050,5318 17040,5319 17029,5319 17017,5319 L 17017,5150 17071,5150 C 17079,5150 17089,5152 17099,5157 17109,5162 17121,5174 17133,5192 L 17233,5350 C 17257,5389 17280,5420 17302,5445 17324,5470 17350,5488 17381,5500 17411,5512 17449,5518 17497,5518 17524,5518 17550,5516 17576,5511 17603,5506 17628,5499 17652,5490 L 17648,5265 C 17634,5269 17622,5273 17612,5275 17601,5278 17591,5280 17581,5280 17571,5280 17560,5278 17548,5273 17537,5268 17523,5259 17508,5248 L 17257,5053 17440,4870 C 17458,4851 17474,4838 17487,4830 17500,4822 17516,4818 17535,4818 17540,4818 17547,4818 17555,4818 17562,4819 17570,4819 17579,4821 L 17612,4825 17610,4643 17412,4646 17172,4643 17169,4818 C 17184,4817 17200,4815 17216,4815 17233,4814 17246,4814 17257,4814 L 17087,4982 17017,4982 17017,4587 C 17018,4559 17020,4531 17024,4502 17028,4474 17030,4446 17031,4417 Z"/>
          </g>
         </g>
        </g>
        <g class="com.sun.star.drawing.ClosedBezierShape">
         <g id="id20">
          <rect class="BoundingBox" stroke="none" fill="none" x="6108" y="4618" width="2389" height="2480"/>
          <path fill="rgb(255,255,255)" stroke="none" d="M 8421,4619 C 8420,4619 8389,4620 8330,4622 8271,4624 8193,4626 8096,4628 7999,4631 7894,4634 7780,4637 7665,4640 7552,4642 7441,4645 7329,4648 7228,4650 7139,4651 7050,4653 6982,4654 6935,4654 L 6125,4654 6108,5098 6189,5084 C 6233,5076 6269,5070 6300,5066 6330,5062 6360,5060 6389,5060 L 6389,6686 C 6360,6686 6331,6685 6301,6681 6272,6678 6236,6673 6193,6666 L 6112,6653 6128,7096 C 6131,7096 6155,7096 6203,7095 6251,7094 6309,7093 6377,7091 6446,7090 6513,7089 6577,7088 6642,7087 6692,7086 6728,7086 6764,7086 6814,7087 6879,7088 6944,7089 7010,7090 7079,7091 7147,7093 7205,7094 7253,7095 7301,7096 7325,7096 7328,7096 L 7344,6653 7263,6666 C 7220,6673 7184,6678 7155,6681 7126,6685 7096,6686 7067,6686 L 7067,6094 C 7158,6096 7237,6118 7305,6160 7372,6203 7431,6257 7481,6322 7532,6387 7576,6455 7615,6524 L 7778,6456 7778,5528 7615,5426 C 7576,5495 7532,5560 7483,5620 7433,5679 7375,5728 7308,5765 7240,5803 7160,5822 7067,5823 L 7067,5060 C 7219,5059 7355,5063 7473,5073 7592,5082 7694,5104 7779,5138 7865,5173 7934,5227 7987,5301 8039,5374 8076,5475 8096,5603 L 8496,5552 8421,4619 Z"/>
         </g>
        </g>
       </g>
      </g>
     </g>
    </g>
   </g>
  </g>
 </g>
</svg>